<svg xmlns="http://www.w3.org/2000/svg" fill="none" viewBox="0 0 256 256" height="256" width="256">
<rect width="256" height="256" fill="#242938" rx="60"/>
  
  <path xmlns="http://www.w3.org/2000/svg" stroke="#fff" d="M91.505 27.803c60.964-24.41 135.74 20.658 142.05 86.028 9.824 58.82-38.995 118.593-98.59 120.32-56.677 5.656-111.449-42.39-113.056-99.304-4.227-46.08 26.136-91.803 69.596-107.044Z" stroke-width="8.911"/>
  <path d="M97.637 121.69c27.327-22.326 54.058-45.426 81.98-67.097-14.646 22.505-29.708 44.711-44.354 67.215-12.562.06-25.123.06-37.626-.119Zm23.1 12.442c12.621 0 25.183 0 37.745.179-27.505 22.206-54.117 45.484-82.099 67.096 14.646-22.505 29.708-44.77 44.354-67.275Z" fill="#fff"/>
</svg>